<svg width="190" height="25" viewBox="0 0 190 25" fill="none" xmlns="http://www.w3.org/2000/svg">
<path d="M8.648 20.216C7.544 20.216 6.6 19.976 5.816 19.496C5.032 19 4.432 18.264 4.016 17.288C3.616 16.296 3.416 15.032 3.416 13.496C3.416 11.944 3.608 10.68 3.992 9.704C4.376 8.712 4.952 7.976 5.72 7.496C6.504 7.016 7.48 6.776 8.648 6.776C9.832 6.776 10.904 7.056 11.864 7.616C12.84 8.16 13.608 8.936 14.168 9.944C14.744 10.936 15.032 12.12 15.032 13.496C15.032 14.872 14.744 16.064 14.168 17.072C13.608 18.08 12.84 18.856 11.864 19.4C10.904 19.944 9.832 20.216 8.648 20.216ZM0.464 24.656V6.992H4.808V9.2L4.784 13.496L5.024 17.816V24.656H0.464ZM7.688 16.592C8.2 16.592 8.656 16.472 9.056 16.232C9.472 15.992 9.8 15.64 10.04 15.176C10.296 14.712 10.424 14.152 10.424 13.496C10.424 12.84 10.296 12.28 10.04 11.816C9.8 11.352 9.472 11 9.056 10.76C8.656 10.52 8.2 10.4 7.688 10.4C7.176 10.4 6.712 10.52 6.296 10.76C5.896 11 5.568 11.352 5.312 11.816C5.072 12.28 4.952 12.84 4.952 13.496C4.952 14.152 5.072 14.712 5.312 15.176C5.568 15.64 5.896 15.992 6.296 16.232C6.712 16.472 7.176 16.592 7.688 16.592ZM17.1515 20V6.992H21.7115V20H17.1515ZM19.4315 5.552C18.5995 5.552 17.9275 5.32 17.4155 4.856C16.9035 4.392 16.6475 3.816 16.6475 3.128C16.6475 2.44 16.9035 1.864 17.4155 1.4C17.9275 0.935999 18.5995 0.704 19.4315 0.704C20.2635 0.704 20.9355 0.927999 21.4475 1.376C21.9595 1.808 22.2155 2.368 22.2155 3.056C22.2155 3.776 21.9595 4.376 21.4475 4.856C20.9515 5.32 20.2795 5.552 19.4315 5.552ZM30.3389 20.216C29.1549 20.216 28.0749 19.944 27.0989 19.4C26.1389 18.84 25.3709 18.064 24.7949 17.072C24.2189 16.064 23.9309 14.864 23.9309 13.472C23.9309 12.096 24.2189 10.912 24.7949 9.92C25.3709 8.912 26.1389 8.136 27.0989 7.592C28.0749 7.048 29.1549 6.776 30.3389 6.776C31.4589 6.776 32.4029 7.016 33.1709 7.496C33.9549 7.976 34.5469 8.712 34.9469 9.704C35.3469 10.696 35.5469 11.952 35.5469 13.472C35.5469 15.024 35.3549 16.296 34.9709 17.288C34.5869 18.28 34.0109 19.016 33.2429 19.496C32.4749 19.976 31.5069 20.216 30.3389 20.216ZM31.2989 16.592C31.8109 16.592 32.2669 16.472 32.6669 16.232C33.0829 15.992 33.4109 15.64 33.6509 15.176C33.8909 14.696 34.0109 14.128 34.0109 13.472C34.0109 12.816 33.8909 12.264 33.6509 11.816C33.4109 11.352 33.0829 11 32.6669 10.76C32.2669 10.52 31.8109 10.4 31.2989 10.4C30.7709 10.4 30.2989 10.52 29.8829 10.76C29.4829 11 29.1629 11.352 28.9229 11.816C28.6829 12.264 28.5629 12.816 28.5629 13.472C28.5629 14.128 28.6829 14.696 28.9229 15.176C29.1629 15.64 29.4829 15.992 29.8829 16.232C30.2989 16.472 30.7709 16.592 31.2989 16.592ZM34.1549 20V17.768L34.1789 13.472L33.9389 9.176V2.192H38.4989V20H34.1549ZM48.2488 20.216C46.7128 20.216 45.3688 19.928 44.2168 19.352C43.0808 18.76 42.1928 17.96 41.5527 16.952C40.9288 15.928 40.6168 14.768 40.6168 13.472C40.6168 12.176 40.9208 11.024 41.5288 10.016C42.1528 8.992 43.0088 8.2 44.0968 7.64C45.1848 7.064 46.4088 6.776 47.7688 6.776C49.0488 6.776 50.2168 7.04 51.2728 7.568C52.3288 8.08 53.1688 8.84 53.7928 9.848C54.4168 10.856 54.7288 12.08 54.7288 13.52C54.7288 13.68 54.7208 13.864 54.7048 14.072C54.6888 14.28 54.6728 14.472 54.6568 14.648H44.3608V12.248H52.2328L50.5048 12.92C50.5208 12.328 50.4088 11.816 50.1688 11.384C49.9448 10.952 49.6248 10.616 49.2088 10.376C48.8088 10.136 48.3368 10.016 47.7928 10.016C47.2488 10.016 46.7688 10.136 46.3528 10.376C45.9528 10.616 45.6408 10.96 45.4168 11.408C45.1928 11.84 45.0808 12.352 45.0808 12.944V13.64C45.0808 14.28 45.2088 14.832 45.4648 15.296C45.7368 15.76 46.1208 16.12 46.6168 16.376C47.1128 16.616 47.7048 16.736 48.3928 16.736C49.0328 16.736 49.5768 16.648 50.0248 16.472C50.4888 16.28 50.9448 15.992 51.3928 15.608L53.7928 18.104C53.1688 18.792 52.4008 19.32 51.4888 19.688C50.5768 20.04 49.4968 20.216 48.2488 20.216ZM62.6392 20.216C60.9752 20.216 59.6792 19.808 58.7512 18.992C57.8232 18.16 57.3592 16.912 57.3592 15.248V4.088H61.9192V15.2C61.9192 15.664 62.0472 16.032 62.3032 16.304C62.5592 16.56 62.8872 16.688 63.2872 16.688C63.8312 16.688 64.2952 16.552 64.6792 16.28L65.8072 19.472C65.4232 19.728 64.9512 19.912 64.3912 20.024C63.8312 20.152 63.2472 20.216 62.6392 20.216ZM55.4632 10.88V7.472H64.8952V10.88H55.4632ZM75.5096 20V17.576L75.1976 16.976V12.512C75.1976 11.792 74.9736 11.24 74.5256 10.856C74.0936 10.456 73.3976 10.256 72.4376 10.256C71.8136 10.256 71.1816 10.36 70.5416 10.568C69.9016 10.76 69.3576 11.032 68.9096 11.384L67.3736 8.288C68.1096 7.808 68.9896 7.44 70.0136 7.184C71.0536 6.912 72.0856 6.776 73.1096 6.776C75.2216 6.776 76.8536 7.264 78.0056 8.24C79.1736 9.2 79.7576 10.712 79.7576 12.776V20H75.5096ZM71.6696 20.216C70.6296 20.216 69.7496 20.04 69.0296 19.688C68.3096 19.336 67.7576 18.856 67.3736 18.248C67.0056 17.64 66.8216 16.96 66.8216 16.208C66.8216 15.408 67.0216 14.72 67.4216 14.144C67.8376 13.552 68.4696 13.104 69.3176 12.8C70.1656 12.48 71.2616 12.32 72.6056 12.32H75.6776V14.696H73.2296C72.4936 14.696 71.9736 14.816 71.6696 15.056C71.3816 15.296 71.2376 15.616 71.2376 16.016C71.2376 16.416 71.3896 16.736 71.6936 16.976C71.9976 17.216 72.4136 17.336 72.9416 17.336C73.4376 17.336 73.8856 17.216 74.2856 16.976C74.7016 16.72 75.0056 16.336 75.1976 15.824L75.8216 17.504C75.5816 18.4 75.1096 19.08 74.4056 19.544C73.7176 19.992 72.8056 20.216 71.6696 20.216ZM81.1239 20L87.0999 12.152L87.0039 14.744L81.2679 6.992H86.4039L89.6199 11.576L87.6999 11.672L91.1079 6.992H95.9319L90.1959 14.576V12.08L96.0999 20H90.8919L87.5319 15.104L89.4519 15.368L86.0679 20H81.1239ZM97.4953 20V6.992H102.055V20H97.4953ZM99.7753 5.552C98.9433 5.552 98.2713 5.32 97.7593 4.856C97.2473 4.392 96.9913 3.816 96.9913 3.128C96.9913 2.44 97.2473 1.864 97.7593 1.4C98.2713 0.935999 98.9433 0.704 99.7753 0.704C100.607 0.704 101.279 0.927999 101.791 1.376C102.303 1.808 102.559 2.368 102.559 3.056C102.559 3.776 102.303 4.376 101.791 4.856C101.295 5.32 100.623 5.552 99.7753 5.552ZM153.238 20.096C152.939 20.096 152.683 19.9947 152.47 19.792C152.257 19.5787 152.15 19.312 152.15 18.992C152.15 18.672 152.257 18.4107 152.47 18.208C152.683 18.0053 152.939 17.904 153.238 17.904C153.526 17.904 153.771 18.0053 153.974 18.208C154.187 18.4107 154.294 18.672 154.294 18.992C154.294 19.312 154.187 19.5787 153.974 19.792C153.771 19.9947 153.526 20.096 153.238 20.096ZM160.004 20.096C159.14 20.096 158.366 19.9093 157.684 19.536C157.012 19.1627 156.484 18.6507 156.1 18C155.716 17.3493 155.524 16.6027 155.524 15.76C155.524 14.9173 155.716 14.1707 156.1 13.52C156.484 12.8693 157.012 12.3627 157.684 12C158.366 11.6267 159.14 11.44 160.004 11.44C160.772 11.44 161.454 11.5947 162.052 11.904C162.66 12.2027 163.129 12.6507 163.46 13.248L162.292 14C162.014 13.584 161.673 13.28 161.268 13.088C160.873 12.8853 160.446 12.784 159.988 12.784C159.433 12.784 158.937 12.9067 158.5 13.152C158.062 13.3973 157.716 13.744 157.46 14.192C157.204 14.6293 157.076 15.152 157.076 15.76C157.076 16.368 157.204 16.896 157.46 17.344C157.716 17.792 158.062 18.1387 158.5 18.384C158.937 18.6293 159.433 18.752 159.988 18.752C160.446 18.752 160.873 18.656 161.268 18.464C161.673 18.2613 162.014 17.952 162.292 17.536L163.46 18.272C163.129 18.8587 162.66 19.312 162.052 19.632C161.454 19.9413 160.772 20.096 160.004 20.096ZM168.955 20.096C168.102 20.096 167.345 19.9093 166.683 19.536C166.022 19.1627 165.499 18.6507 165.115 18C164.731 17.3387 164.539 16.592 164.539 15.76C164.539 14.9173 164.731 14.1707 165.115 13.52C165.499 12.8693 166.022 12.3627 166.683 12C167.345 11.6267 168.102 11.44 168.955 11.44C169.798 11.44 170.55 11.6267 171.211 12C171.883 12.3627 172.406 12.8693 172.779 13.52C173.163 14.16 173.355 14.9067 173.355 15.76C173.355 16.6027 173.163 17.3493 172.779 18C172.406 18.6507 171.883 19.1627 171.211 19.536C170.55 19.9093 169.798 20.096 168.955 20.096ZM168.955 18.752C169.499 18.752 169.985 18.6293 170.411 18.384C170.849 18.1387 171.19 17.792 171.435 17.344C171.681 16.8853 171.803 16.3573 171.803 15.76C171.803 15.152 171.681 14.6293 171.435 14.192C171.19 13.744 170.849 13.3973 170.411 13.152C169.985 12.9067 169.499 12.784 168.955 12.784C168.411 12.784 167.926 12.9067 167.499 13.152C167.073 13.3973 166.731 13.744 166.475 14.192C166.219 14.6293 166.091 15.152 166.091 15.76C166.091 16.3573 166.219 16.8853 166.475 17.344C166.731 17.792 167.073 18.1387 167.499 18.384C167.926 18.6293 168.411 18.752 168.955 18.752ZM186.087 11.44C186.77 11.44 187.373 11.5733 187.895 11.84C188.418 12.1067 188.823 12.512 189.111 13.056C189.41 13.6 189.559 14.288 189.559 15.12V20H188.023V15.296C188.023 14.4747 187.831 13.856 187.447 13.44C187.063 13.024 186.525 12.816 185.831 12.816C185.319 12.816 184.871 12.9227 184.487 13.136C184.103 13.3493 183.805 13.664 183.591 14.08C183.389 14.496 183.287 15.0133 183.287 15.632V20H181.751V15.296C181.751 14.4747 181.559 13.856 181.175 13.44C180.802 13.024 180.263 12.816 179.559 12.816C179.058 12.816 178.615 12.9227 178.231 13.136C177.847 13.3493 177.549 13.664 177.335 14.08C177.122 14.496 177.015 15.0133 177.015 15.632V20H175.479V11.52H176.951V13.776L176.711 13.2C176.978 12.6453 177.389 12.2133 177.943 11.904C178.498 11.5947 179.143 11.44 179.879 11.44C180.69 11.44 181.389 11.6427 181.975 12.048C182.562 12.4427 182.946 13.0453 183.127 13.856L182.503 13.6C182.759 12.9493 183.207 12.4267 183.847 12.032C184.487 11.6373 185.234 11.44 186.087 11.44Z" fill="black"/>
<path d="M113.203 20.216C112.035 20.216 111.059 19.976 110.275 19.496C109.507 19.016 108.931 18.28 108.547 17.288C108.163 16.296 107.971 15.024 107.971 13.472C107.971 11.952 108.171 10.696 108.571 9.704C108.987 8.712 109.587 7.976 110.371 7.496C111.155 7.016 112.099 6.776 113.203 6.776C114.387 6.776 115.459 7.048 116.419 7.592C117.395 8.136 118.163 8.912 118.723 9.92C119.299 10.912 119.587 12.096 119.587 13.472C119.587 14.864 119.299 16.064 118.723 17.072C118.163 18.064 117.395 18.84 116.419 19.4C115.459 19.944 114.387 20.216 113.203 20.216ZM105.019 20V2.192H109.579V9.176L109.339 13.472L109.363 17.768V20H105.019ZM112.243 16.592C112.755 16.592 113.211 16.472 113.611 16.232C114.027 15.992 114.355 15.64 114.595 15.176C114.851 14.696 114.979 14.128 114.979 13.472C114.979 12.816 114.851 12.264 114.595 11.816C114.355 11.352 114.027 11 113.611 10.76C113.211 10.52 112.755 10.4 112.243 10.4C111.731 10.4 111.267 10.52 110.851 10.76C110.451 11 110.123 11.352 109.867 11.816C109.627 12.264 109.507 12.816 109.507 13.472C109.507 14.128 109.627 14.696 109.867 15.176C110.123 15.64 110.451 15.992 110.851 16.232C111.267 16.472 111.731 16.592 112.243 16.592ZM128.354 20.216C126.914 20.216 125.626 19.928 124.49 19.352C123.37 18.776 122.49 17.984 121.85 16.976C121.21 15.952 120.89 14.784 120.89 13.472C120.89 12.16 121.21 11 121.85 9.992C122.49 8.984 123.37 8.2 124.49 7.64C125.626 7.064 126.914 6.776 128.354 6.776C129.826 6.776 131.098 7.088 132.17 7.712C133.242 8.336 134.002 9.216 134.45 10.352L130.922 12.152C130.618 11.544 130.242 11.104 129.794 10.832C129.346 10.544 128.858 10.4 128.33 10.4C127.802 10.4 127.322 10.52 126.89 10.76C126.458 11 126.114 11.352 125.858 11.816C125.618 12.264 125.498 12.816 125.498 13.472C125.498 14.144 125.618 14.712 125.858 15.176C126.114 15.64 126.458 15.992 126.89 16.232C127.322 16.472 127.802 16.592 128.33 16.592C128.858 16.592 129.346 16.456 129.794 16.184C130.242 15.896 130.618 15.448 130.922 14.84L134.45 16.64C134.002 17.776 133.242 18.656 132.17 19.28C131.098 19.904 129.826 20.216 128.354 20.216ZM144.639 6.776C145.647 6.776 146.559 6.984 147.375 7.4C148.191 7.8 148.831 8.424 149.295 9.272C149.775 10.12 150.015 11.216 150.015 12.56V20H145.455V13.304C145.455 12.376 145.263 11.704 144.879 11.288C144.511 10.856 143.991 10.64 143.319 10.64C142.839 10.64 142.399 10.752 141.999 10.976C141.599 11.184 141.287 11.512 141.063 11.96C140.839 12.408 140.727 12.992 140.727 13.712V20H136.167V6.992H140.511V10.688L139.671 9.608C140.167 8.664 140.847 7.96 141.711 7.496C142.575 7.016 143.551 6.776 144.639 6.776Z" fill="#ED7E00"/>
</svg>